<?xml version="1.0" encoding="utf-8" standalone="yes"?>
<!DOCTYPE svg PUBLIC "-//W3C//DTD SVG 1.1//EN" "http://www.w3.org/Graphics/SVG/1.1/DTD/svg11.dtd">
<svg width="805" height="325" viewBox="0 0 805 325" style="fill:none;stroke:none;fill-rule:evenodd;clip-rule:evenodd;stroke-linecap:round;stroke-linejoin:round;stroke-miterlimit:1.5;" version="1.1" xmlns="http://www.w3.org/2000/svg" xmlns:xlink="http://www.w3.org/1999/xlink"><style id="fontImports">@import url("https://fonts.googleapis.com/css2?family=Roboto:wght@400;700&amp;display=block");</style><rect id="" x="0" y="0" width="805" height="325" style="fill: #ffffff;"></rect><g id="items" style="isolation: isolate"><g id="blend" style="mix-blend-mode:multiply"><g id="g-root-ro_1uoom2l7t1urv-fill" data-item-order="999979264" data-item-id="ro_1uoom2l7t1urv" data-item-class="Shape Stroke Fill" data-item-index="none" data-renderer-id="0" transform="translate(494, 3)"><g id="ro_1uoom2l7t1urv-fill" stroke="none" fill="#e9fbf3"><g><path d="M 22 10L 286 10C 286 10 298 10 298 22L 298 70C 298 70 298 82 286 82L 22 82C 22 82 10 82 10 70L 10 22C 10 22 10 10 22 10"></path></g></g></g><g id="g-root-ro_1unfnwd7sz08y-fill" data-item-order="999981856" data-item-id="ro_1unfnwd7sz08y" data-item-class="Shape Stroke Fill" data-item-index="none" data-renderer-id="0" transform="translate(302, 15)"><g id="ro_1unfnwd7sz08y-fill" stroke="none" fill="#f0f0f0"><g><path d="M 34 10L 130 10C 130 10 154 10 154 34L 154 112C 154 112 154 136 130 136L 34 136C 34 136 10 136 10 112L 10 34C 10 34 10 10 34 10"></path></g></g></g><g id="g-root-ro_1cw5nel7t3954-fill" data-item-order="999982504" data-item-id="ro_1cw5nel7t3954" data-item-class="Shape Stroke Fill" data-item-index="none" data-renderer-id="0" transform="translate(212, 177)"><g id="ro_1cw5nel7t3954-fill" stroke="none" fill="#fef2e6"><g><path d="M 22 10L 322 10C 322 10 334 10 334 22L 334 52C 334 52 334 64 322 64L 22 64C 22 64 10 64 10 52L 10 22C 10 22 10 10 22 10"></path></g></g></g><g id="g-root-ro_v6r2657t4ooz-fill" data-item-order="999987040" data-item-id="ro_v6r2657t4ooz" data-item-class="Shape Stroke Fill" data-item-index="none" data-renderer-id="0" transform="translate(14, 3)"><g id="ro_v6r2657t4ooz-fill" stroke="none" fill="#e6efff"><g><path d="M 22 10L 238 10C 238 10 250 10 250 22L 250 52C 250 52 250 64 238 64L 22 64C 22 64 10 64 10 52L 10 22C 10 22 10 10 22 10"></path></g></g></g><g id="g-root-tran_4j7kcd7t1u6a-fill" data-item-order="1000000000" data-item-id="tran_4j7kcd7t1u6a" data-item-class="Icon Stroke" data-item-index="none" data-renderer-id="0" transform="translate(506, 24)"></g><g id="g-root-tx_translat_8z12gt7t1te1-fill" data-item-order="1000000000" data-item-id="tx_translat_8z12gt7t1te1" data-item-class="Label Stroke" data-item-index="none" data-renderer-id="0" transform="translate(542, 15)"><g id="tx_translat_8z12gt7t1te1-fill" stroke="none" fill="#3bc482"><g><text style="font: 20px Roboto, sans-serif; white-space: pre;"><tspan x="17.3" y="33.5" dominant-baseline="ideographic">Translates to OpenShift </tspan><tspan x="72.81" y="57.5" dominant-baseline="ideographic">Constructs</tspan></text></g></g></g><g id="g-root-cu_v6r2657t4op0-fill" data-item-order="1000000000" data-item-id="cu_v6r2657t4op0" data-item-class="Curve Stroke ColorFillGray ColorStrokeGray" data-item-index="none" data-renderer-id="0" transform="translate(254, 30)"></g><g id="g-root-1_2541p7syznt-fill" data-item-order="1000000000" data-item-id="1_2541p7syznt" data-item-class="Icon Stroke" data-item-index="none" data-renderer-id="0" transform="translate(350, 39)"></g><g id="g-root-cu_v6r2657t4op3-fill" data-item-order="1000000000" data-item-id="cu_v6r2657t4op3" data-item-class="Curve Stroke ColorFillGray ColorStrokeGray" data-item-index="none" data-renderer-id="0" transform="translate(446, 39)"></g><g id="g-root-tx_develope_18gc5a57t39xd-fill" data-item-order="1000000000" data-item-id="tx_develope_18gc5a57t39xd" data-item-class="Label Stroke" data-item-index="none" data-renderer-id="0" transform="translate(2, 69)"><g id="tx_develope_18gc5a57t39xd-fill" stroke="none" fill="#484848"><g><text style="font: 20px Roboto, sans-serif; white-space: pre;"><tspan x="13.74" y="33.5" dominant-baseline="ideographic">Developer Commands</tspan></text></g></g></g><g id="g-root-cu_qrk14t7t4mbp-fill" data-item-order="1000000000" data-item-id="cu_qrk14t7t4mbp" data-item-class="Curve Stroke ColorFillGray ColorStrokeGray" data-item-index="none" data-renderer-id="0" transform="translate(212, 57)"></g><g id="g-root-cu_qrk14t7t4mbs-fill" data-item-order="1000000000" data-item-id="cu_qrk14t7t4mbs" data-item-class="Curve Stroke ColorFillGray ColorStrokeGray" data-item-index="none" data-renderer-id="0" transform="translate(212, 57)"></g><g id="g-root-cu_mbqj0d7t4n42-fill" data-item-order="1000000000" data-item-id="cu_mbqj0d7t4n42" data-item-class="Curve Stroke ColorFillGray ColorStrokeGray" data-item-index="none" data-renderer-id="0" transform="translate(518, 75)"></g><g id="g-root-cu_mbqj0d7t4n45-fill" data-item-order="1000000000" data-item-id="cu_mbqj0d7t4n45" data-item-class="Curve Stroke ColorFillGray ColorStrokeGray" data-item-index="none" data-renderer-id="0" transform="translate(518, 75)"></g><g id="g-root-tx_developm_18gc5a57t39xe-fill" data-item-order="1000000000" data-item-id="tx_developm_18gc5a57t39xe" data-item-class="Label Stroke" data-item-index="none" data-renderer-id="0" transform="translate(26, 105)"><g id="tx_developm_18gc5a57t39xe-fill" stroke="none" fill="#484848"><g><text style="font: 20px Roboto, sans-serif; white-space: pre;"><tspan x="14.79" y="33.5" dominant-baseline="ideographic">Development Tools</tspan></text></g></g></g><g id="g-root-tx_kubedock_8x5n7h7sz20w-fill" data-item-order="1000000000" data-item-id="tx_kubedock_8x5n7h7sz20w" data-item-class="Label Stroke" data-item-index="none" data-renderer-id="0" transform="translate(326, 93)"><g id="tx_kubedock_8x5n7h7sz20w-fill" stroke="none" fill="#484848"><g><text style="font: 20px Roboto, sans-serif; white-space: pre;"><tspan x="13.77" y="33.5" dominant-baseline="ideographic">Kubedock</tspan></text></g></g></g><g id="g-root-tx_pods_zlbm4d7t37kb-fill" data-item-order="1000000000" data-item-id="tx_pods_zlbm4d7t37kb" data-item-class="Label Stroke" data-item-index="none" data-renderer-id="0" transform="translate(542, 87)"><g id="tx_pods_zlbm4d7t37kb-fill" stroke="none" fill="#484848"><g><text style="font: 20px Roboto, sans-serif; white-space: pre;"><tspan x="17.25" y="33.5" dominant-baseline="ideographic">Pods</tspan></text></g></g></g><g id="g-root-tx_deployme_zlbm4d7t37kc-fill" data-item-order="1000000000" data-item-id="tx_deployme_zlbm4d7t37kc" data-item-class="Label Stroke" data-item-index="none" data-renderer-id="0" transform="translate(542, 123)"><g id="tx_deployme_zlbm4d7t37kc-fill" stroke="none" fill="#484848"><g><text style="font: 20px Roboto, sans-serif; white-space: pre;"><tspan x="17.74" y="33.5" dominant-baseline="ideographic">Deployments</tspan></text></g></g></g><g id="g-root-cu_qrk14t7t4mbm-fill" data-item-order="1000000000" data-item-id="cu_qrk14t7t4mbm" data-item-class="Curve Stroke ColorFillGray ColorStrokeGray" data-item-index="none" data-renderer-id="0" transform="translate(374, 141)"></g><g id="g-root-1_zmkkal7t4nwq-fill" data-item-order="1000000000" data-item-id="1_zmkkal7t4nwq" data-item-class="Icon Stroke" data-item-index="none" data-renderer-id="0" transform="translate(212, 15)"></g><g id="g-root-2_1hbz5j17t38cv-fill" data-item-order="1000000000" data-item-id="2_1hbz5j17t38cv" data-item-class="Icon Stroke" data-item-index="none" data-renderer-id="0" transform="translate(224, 189)"></g><g id="g-root-tx_managesr_1q7m5rx7t37k6-fill" data-item-order="1000000000" data-item-id="tx_managesr_1q7m5rx7t37k6" data-item-class="Label Stroke" data-item-index="none" data-renderer-id="0" transform="translate(260, 192)"><g id="tx_managesr_1q7m5rx7t37k6-fill" stroke="none" fill="#dd8433"><g><text style="font: 20px Roboto, sans-serif; white-space: pre;"><tspan x="14.88" y="33.5" dominant-baseline="ideographic">Manages Resource Lifecycle</tspan></text></g></g></g><g id="g-root-cu_dg3irh7t4nwv-fill" data-item-order="1000000000" data-item-id="cu_dg3irh7t4nwv" data-item-class="Curve Stroke ColorFillGray ColorStrokeGray" data-item-index="none" data-renderer-id="0" transform="translate(236, 231)"></g><g id="g-root-cu_hvx0vx7t4nwi-fill" data-item-order="1000000000" data-item-id="cu_hvx0vx7t4nwi" data-item-class="Curve Stroke ColorFillGray ColorStrokeGray" data-item-index="none" data-renderer-id="0" transform="translate(236, 231)"></g><g id="g-root-tx_resource_zlbm4d7t37kd-fill" data-item-order="1000000000" data-item-id="tx_resource_zlbm4d7t37kd" data-item-class="Label Stroke" data-item-index="none" data-renderer-id="0" transform="translate(260, 243)"><g id="tx_resource_zlbm4d7t37kd-fill" stroke="none" fill="#484848"><g><text style="font: 20px Roboto, sans-serif; white-space: pre;"><tspan x="12.42" y="33.5" dominant-baseline="ideographic">Resource Creation</tspan></text></g></g></g><g id="g-root-tx_resource_v5i3zx7t38cm-fill" data-item-order="1000000000" data-item-id="tx_resource_v5i3zx7t38cm" data-item-class="Label Stroke" data-item-index="none" data-renderer-id="0" transform="translate(260, 279)"><g id="tx_resource_v5i3zx7t38cm-fill" stroke="none" fill="#484848"><g><text style="font: 20px Roboto, sans-serif; white-space: pre;"><tspan x="14.99" y="33.5" dominant-baseline="ideographic">Resource Management</tspan></text></g></g></g><g id="g-root-tx_intercep_18i7kjh7t4n41-fill" data-item-order="1000000000" data-item-id="tx_intercep_18i7kjh7t4n41" data-item-class="Label Stroke" data-item-index="none" data-renderer-id="0" transform="translate(26, 18)"><g id="tx_intercep_18i7kjh7t4n41-fill" stroke="none" fill="#4682e3"><g><text style="font: 20px Roboto, sans-serif; white-space: pre;"><tspan x="12.88" y="33.5" dominant-baseline="ideographic">Intercepts API Calls</tspan></text></g></g></g><g id="g-root-ro_1uoom2l7t1urv-stroke" data-item-order="999979264" data-item-id="ro_1uoom2l7t1urv" data-item-class="Shape Stroke Fill" data-item-index="none" data-renderer-id="0" transform="translate(494, 3)"><g id="ro_1uoom2l7t1urv-stroke" fill="none" stroke-linecap="round" stroke-linejoin="round" stroke-miterlimit="4" stroke="#3bc482" stroke-width="2"><g><path d="M 22 10L 286 10C 286 10 298 10 298 22L 298 70C 298 70 298 82 286 82L 22 82C 22 82 10 82 10 70L 10 22C 10 22 10 10 22 10"></path></g></g></g><g id="g-root-ro_1unfnwd7sz08y-stroke" data-item-order="999981856" data-item-id="ro_1unfnwd7sz08y" data-item-class="Shape Stroke Fill" data-item-index="none" data-renderer-id="0" transform="translate(302, 15)"><g id="ro_1unfnwd7sz08y-stroke" fill="none" stroke-linecap="round" stroke-linejoin="round" stroke-miterlimit="4" stroke="#484848" stroke-width="2"><g><path d="M 34 10L 130 10C 130 10 154 10 154 34L 154 112C 154 112 154 136 130 136L 34 136C 34 136 10 136 10 112L 10 34C 10 34 10 10 34 10"></path></g></g></g><g id="g-root-ro_1cw5nel7t3954-stroke" data-item-order="999982504" data-item-id="ro_1cw5nel7t3954" data-item-class="Shape Stroke Fill" data-item-index="none" data-renderer-id="0" transform="translate(212, 177)"><g id="ro_1cw5nel7t3954-stroke" fill="none" stroke-linecap="round" stroke-linejoin="round" stroke-miterlimit="4" stroke="#dd8433" stroke-width="2"><g><path d="M 22 10L 322 10C 322 10 334 10 334 22L 334 52C 334 52 334 64 322 64L 22 64C 22 64 10 64 10 52L 10 22C 10 22 10 10 22 10"></path></g></g></g><g id="g-root-ro_v6r2657t4ooz-stroke" data-item-order="999987040" data-item-id="ro_v6r2657t4ooz" data-item-class="Shape Stroke Fill" data-item-index="none" data-renderer-id="0" transform="translate(14, 3)"><g id="ro_v6r2657t4ooz-stroke" fill="none" stroke-linecap="round" stroke-linejoin="round" stroke-miterlimit="4" stroke="#4682e3" stroke-width="2"><g><path d="M 22 10L 238 10C 238 10 250 10 250 22L 250 52C 250 52 250 64 238 64L 22 64C 22 64 10 64 10 52L 10 22C 10 22 10 10 22 10"></path></g></g></g><g id="g-root-tran_4j7kcd7t1u6a-stroke" data-item-order="1000000000" data-item-id="tran_4j7kcd7t1u6a" data-item-class="Icon Stroke" data-item-index="none" data-renderer-id="0" transform="translate(506, 24)"><g id="tran_4j7kcd7t1u6a-stroke" fill="none" stroke-linecap="round" stroke-linejoin="round" stroke-miterlimit="4" stroke="#3bc482" stroke-width="2"><g><path d="M 13.16375 15.6225L 23.125 15.6225M 18.125 13.122499L 18.125 15.6225M 21.25 15.625C 20.240309 19.268469 17.393469 22.115309 13.75 23.125M 15 15.625C 16.009693 19.268469 18.856531 22.115309 22.5 23.125M 28.125 36.875L 31.289999 28.436249C 31.38163 28.192596 31.614687 28.03125 31.875 28.03125C 32.135311 28.03125 32.36837 28.192596 32.459999 28.436249L 35.625 36.875M 29.0625 34.372498L 34.702499 34.372498M 11.875 10.6225L 24.375 10.6225C 24.375 10.6225 25.625 10.6225 25.625 11.8725L 25.625 24.372499C 25.625 24.372499 25.625 25.622499 24.375 25.622499L 11.875 25.622499C 11.875 25.622499 10.625 25.622499 10.625 24.372499L 10.625 11.8725C 10.625 11.8725 10.625 10.6225 11.875 10.6225M 28.75 24.375L 38.125 24.375C 38.815353 24.375 39.375 24.934643 39.375 25.625L 39.375 38.125C 39.375 38.815353 38.815353 39.375 38.125 39.375L 25.625 39.375C 24.934643 39.375 24.375 38.815353 24.375 38.125L 24.375 28.75M 17.5 38.747498L 20 36.247498L 17.5 33.747498M 12.5 30C 12.5 33.451778 15.298221 36.25 18.75 36.25L 20 36.25M 32.5 11.2475L 30 13.747499L 32.5 16.247499M 37.5 20C 37.5 16.54822 34.701778 13.75 31.25 13.75L 30 13.75"></path></g></g></g><g id="g-root-tx_translat_8z12gt7t1te1-stroke" data-item-order="1000000000" data-item-id="tx_translat_8z12gt7t1te1" data-item-class="Label Stroke" data-item-index="none" data-renderer-id="0" transform="translate(542, 15)"></g><g id="g-root-cu_v6r2657t4op0-stroke" data-item-order="1000000000" data-item-id="cu_v6r2657t4op0" data-item-class="Curve Stroke ColorFillGray ColorStrokeGray" data-item-index="none" data-renderer-id="0" transform="translate(254, 30)"><g id="cu_v6r2657t4op0-stroke" fill="none" stroke-linecap="round" stroke-linejoin="round" stroke-miterlimit="4" stroke="#888888" stroke-width="2" stroke-dasharray="5.0, 7.0"><g><path d="M 58 37L 55 37L 54.9 37C 50.939934 36.982885 46.647411 35.702052 42.500002 33.3C 40.005522 31.898041 36.944719 28.369114 33.999999 23.499999C 31.05528 18.630885 27.994476 15.101958 25.499999 13.7C 21.352591 11.297948 17.060069 10.017115 13.1 10L 13 10L 10 10"></path></g></g></g><g id="g-root-1_2541p7syznt-stroke" data-item-order="1000000000" data-item-id="1_2541p7syznt" data-item-class="Icon Stroke" data-item-index="none" data-renderer-id="0" transform="translate(350, 39)"><g id="1_2541p7syznt-stroke" fill="none" stroke-linecap="round" stroke-linejoin="round" stroke-miterlimit="4" stroke="#484848" stroke-width="2"><g><path d="M 43.931999 19.574001C 44.595074 19.971897 45.000557 20.688705 45 21.462002L 45 30.74L 34 37.816002L 23 30.74L 23 21.462C 22.999445 20.688705 23.404926 19.971897 24.068001 19.574001L 32.868 14.294001C 33.564758 13.875892 34.435246 13.875892 35.132004 14.294001ZM 34 26.816L 34 37.816002M 45 44.416L 34 37.816002L 45 30.74L 55 37.166C 55.625572 37.573112 56.002068 38.26963 56.000004 39.015999L 56 47.139999C 56.002068 47.886375 55.625572 48.58289 55.000004 48.990002L 46.200001 54.650002C 45.475147 55.116165 44.544857 55.116165 43.820004 54.650002L 34 48.34L 34 37.816002M 45 44.416L 45 55M 34 37.816002L 34 48.34L 24.200001 54.650002C 23.475147 55.116165 22.544855 55.116165 21.82 54.650002L 13.02 48.990002C 12.386795 48.587597 12.002312 47.890251 12 47.140003L 12 39.015999C 11.997935 38.26963 12.374431 37.573112 13 37.166L 23 30.74L 34 37.816002L 23 44.416M 23 44.416L 12.262 37.973999M 23 44.416L 23 55M 34 26.816L 23.282 20.383999M 44.717999 20.383999L 34 26.816M 55.737999 37.973999L 45 44.416"></path></g></g></g><g id="g-root-cu_v6r2657t4op3-stroke" data-item-order="1000000000" data-item-id="cu_v6r2657t4op3" data-item-class="Curve Stroke ColorFillGray ColorStrokeGray" data-item-index="none" data-renderer-id="0" transform="translate(446, 39)"><g id="cu_v6r2657t4op3-stroke" fill="none" stroke-linecap="round" stroke-linejoin="round" stroke-miterlimit="4" stroke="#888888" stroke-width="2" stroke-dasharray="5.0, 7.0"><g><path d="M 10 28L 13 28L 13.1 28C 16.632281 28.020072 20.514747 27.236768 24.500001 25.699999C 26.884298 24.735994 30.256797 22.357494 34.000001 19C 37.743204 15.642505 41.115703 13.264006 43.500001 12.299999C 47.485254 10.763229 51.367721 9.979924 54.900001 9.999997L 55 10L 58 10"></path></g></g></g><g id="g-root-tx_develope_18gc5a57t39xd-stroke" data-item-order="1000000000" data-item-id="tx_develope_18gc5a57t39xd" data-item-class="Label Stroke" data-item-index="none" data-renderer-id="0" transform="translate(2, 69)"></g><g id="g-root-cu_qrk14t7t4mbp-stroke" data-item-order="1000000000" data-item-id="cu_qrk14t7t4mbp" data-item-class="Curve Stroke ColorFillGray ColorStrokeGray" data-item-index="none" data-renderer-id="0" transform="translate(212, 57)"><g id="cu_qrk14t7t4mbp-stroke" fill="none" stroke-linecap="round" stroke-linejoin="round" stroke-miterlimit="4" stroke="#888888" stroke-width="2" stroke-dasharray="5.0, 7.0"><g><path d="M 28 10L 28 22L 28 34L 19 34L 10 34"></path></g></g></g><g id="g-root-cu_qrk14t7t4mbs-stroke" data-item-order="1000000000" data-item-id="cu_qrk14t7t4mbs" data-item-class="Curve Stroke ColorFillGray ColorStrokeGray" data-item-index="none" data-renderer-id="0" transform="translate(212, 57)"><g id="cu_qrk14t7t4mbs-stroke" fill="none" stroke-linecap="round" stroke-linejoin="round" stroke-miterlimit="4" stroke="#888888" stroke-width="2" stroke-dasharray="5.0, 7.0"><g><path d="M 28 10L 28 17.5L 28 58C 27.999999 64.627415 22.627416 69.999998 16 69.999998L 15.9 70L 10 70"></path></g></g></g><g id="g-root-cu_mbqj0d7t4n42-stroke" data-item-order="1000000000" data-item-id="cu_mbqj0d7t4n42" data-item-class="Curve Stroke ColorFillGray ColorStrokeGray" data-item-index="none" data-renderer-id="0" transform="translate(518, 75)"><g id="cu_mbqj0d7t4n42-stroke" fill="none" stroke-linecap="round" stroke-linejoin="round" stroke-miterlimit="4" stroke="#888888" stroke-width="2" stroke-dasharray="5.0, 7.0"><g><path d="M 10 10L 10 22L 10 34L 19 34L 28 34"></path></g></g></g><g id="g-root-cu_mbqj0d7t4n45-stroke" data-item-order="1000000000" data-item-id="cu_mbqj0d7t4n45" data-item-class="Curve Stroke ColorFillGray ColorStrokeGray" data-item-index="none" data-renderer-id="0" transform="translate(518, 75)"><g id="cu_mbqj0d7t4n45-stroke" fill="none" stroke-linecap="round" stroke-linejoin="round" stroke-miterlimit="4" stroke="#888888" stroke-width="2" stroke-dasharray="5.0, 7.0"><g><path d="M 10 10L 10 17.5L 10 58C 10.000002 64.627417 15.372585 70 22.000002 69.999999L 22.1 70L 28 70"></path></g></g></g><g id="g-root-tx_developm_18gc5a57t39xe-stroke" data-item-order="1000000000" data-item-id="tx_developm_18gc5a57t39xe" data-item-class="Label Stroke" data-item-index="none" data-renderer-id="0" transform="translate(26, 105)"></g><g id="g-root-tx_kubedock_8x5n7h7sz20w-stroke" data-item-order="1000000000" data-item-id="tx_kubedock_8x5n7h7sz20w" data-item-class="Label Stroke" data-item-index="none" data-renderer-id="0" transform="translate(326, 93)"></g><g id="g-root-tx_pods_zlbm4d7t37kb-stroke" data-item-order="1000000000" data-item-id="tx_pods_zlbm4d7t37kb" data-item-class="Label Stroke" data-item-index="none" data-renderer-id="0" transform="translate(542, 87)"></g><g id="g-root-tx_deployme_zlbm4d7t37kc-stroke" data-item-order="1000000000" data-item-id="tx_deployme_zlbm4d7t37kc" data-item-class="Label Stroke" data-item-index="none" data-renderer-id="0" transform="translate(542, 123)"></g><g id="g-root-cu_qrk14t7t4mbm-stroke" data-item-order="1000000000" data-item-id="cu_qrk14t7t4mbm" data-item-class="Curve Stroke ColorFillGray ColorStrokeGray" data-item-index="none" data-renderer-id="0" transform="translate(374, 141)"><g id="cu_qrk14t7t4mbm-stroke" fill="none" stroke-linecap="round" stroke-linejoin="round" stroke-miterlimit="4" stroke="#888888" stroke-width="2" stroke-dasharray="5.0, 7.0"><g><path d="M 10 10L 10 28L 10 46"></path></g></g></g><g id="g-root-1_zmkkal7t4nwq-stroke" data-item-order="1000000000" data-item-id="1_zmkkal7t4nwq" data-item-class="Icon Stroke" data-item-index="none" data-renderer-id="0" transform="translate(212, 15)"><g id="1_zmkkal7t4nwq-stroke" fill="none" stroke-linecap="round" stroke-linejoin="round" stroke-miterlimit="4" stroke="#4682e3" stroke-width="2"><g><path d="M 34.375 25L 37.5 25C 37.845177 25 38.125 25.279823 38.125 25.625L 38.125 31.25C 38.125 31.940355 37.565353 32.5 36.875 32.5L 33.125 32.5C 32.434647 32.5 31.875 31.940355 31.875 31.25L 31.875 28.75M 14.375 18.75L 11.875 18.75L 11.875 12.5C 11.875 11.809644 12.434644 11.25 13.125 11.25L 16.875 11.25C 17.565355 11.25 18.125 11.809644 18.125 12.5L 18.125 16.25M 21.875 18.75C 21.875 20.130713 22.994287 21.25 24.375 21.25C 25.755713 21.25 26.875 20.130713 26.875 18.75C 26.875 17.369287 25.755713 16.25 24.375 16.25C 22.994287 16.25 21.875 17.369287 21.875 18.75ZM 34.375 25C 34.375 24.309643 33.815353 23.75 33.125 23.75L 22.5 23.75C 20.774111 23.75 19.375 22.350889 19.375 20.625L 19.375 17.5C 19.375 16.809645 18.815355 16.25 18.125 16.25C 17.434645 16.25 16.875 16.809645 16.875 17.5L 16.875 20C 16.668774 22.708221 18.355659 25.201517 20.946251 26.0175C 21.493217 26.162956 21.874201 26.657774 21.875 27.223751L 21.875 29.7925C 21.875164 29.929905 21.852348 30.066372 21.807501 30.196249L 19.49 36.97625C 19.200586 37.603119 19.474228 38.345913 20.101152 38.635212C 20.728077 38.924507 21.470819 38.65073 21.76 38.02375L 24.375 32.357498L 26.99 38.02375C 27.279181 38.65073 28.021923 38.924507 28.648848 38.635212C 29.275772 38.345913 29.549414 37.603119 29.26 36.97625L 26.942499 30.196249C 26.897652 30.066372 26.874836 29.929905 26.875 29.7925L 26.875 27.5C 26.875 26.809643 27.434643 26.25 28.125 26.25L 33.125 26.25C 33.815353 26.25 34.375 25.690357 34.375 25Z"></path></g></g></g><g id="g-root-2_1hbz5j17t38cv-stroke" data-item-order="1000000000" data-item-id="2_1hbz5j17t38cv" data-item-class="Icon Stroke" data-item-index="none" data-renderer-id="0" transform="translate(224, 189)"><g id="2_1hbz5j17t38cv-stroke" fill="none" stroke-linecap="round" stroke-linejoin="round" stroke-miterlimit="4" stroke="#dd8433" stroke-width="2"><g><path d="M 10.625 31.397499C 10.625 33.249725 12.126525 34.751251 13.97875 34.751251C 15.830976 34.751251 17.3325 33.249725 17.3325 31.397499C 17.3325 29.545277 15.830976 28.043751 13.97875 28.043751C 12.126525 28.043751 10.625 29.545277 10.625 31.397499M 19.268749 39.201248C 18.583487 37.59642 17.206522 36.38961 15.525685 35.920723C 13.84485 35.451843 12.042029 35.771622 10.625 36.790001M 32.6675 31.397499C 32.6675 33.249725 34.169025 34.751251 36.021252 34.751251C 37.873474 34.751251 39.375004 33.249725 39.375004 31.397499C 39.375004 29.545277 37.873474 28.043751 36.021252 28.043751C 34.169025 28.043751 32.6675 29.545277 32.6675 31.397499M 30.731249 39.201248C 31.416512 37.59642 32.793476 36.38961 34.474312 35.920723C 36.155151 35.451843 37.95797 35.771622 39.374996 36.790001M 20.6875 30.438749C 20.68689 32.820908 22.61784 34.752354 25 34.752354C 27.38216 34.752354 29.31311 32.820908 29.3125 30.438749C 29.31311 28.056591 27.38216 26.125145 25 26.125145C 22.61784 26.125145 20.68689 28.056591 20.6875 30.438749M 30.731249 39.201248C 29.262579 37.587753 27.181822 36.668076 24.999998 36.668076C 22.818176 36.668076 20.737419 37.587753 19.268749 39.201248M 23.08375 19.42375C 23.08375 20.482065 23.941685 21.34 25 21.34C 26.058315 21.34 26.91625 20.482065 26.91625 19.42375C 26.91625 18.365435 26.058315 17.5075 25 17.5075C 23.941685 17.5075 23.08375 18.365435 23.08375 19.42375M 21.307499 24.11125L 19.424999 24.547499C 18.693716 24.711058 17.941133 24.379435 17.568363 23.72938C 17.195593 23.079327 17.289486 22.262299 17.800001 21.713751L 19.11375 20.293749C 19.568741 19.8025 19.568741 19.043749 19.11375 18.5525L 17.797501 17.133749C 17.287766 16.584837 17.19429 15.768196 17.566805 15.118299C 17.939322 14.468402 18.691231 14.136329 19.422499 14.29875L 21.305 14.735001C 21.957451 14.88414 22.613667 14.501347 22.805 13.86L 23.375 12.00875C 23.590919 11.289978 24.252623 10.79784 25.003124 10.79784C 25.753628 10.79784 26.415331 11.289978 26.63125 12.00875L 27.196251 13.865C 27.387583 14.506347 28.0438 14.88914 28.696251 14.74L 30.571251 14.30375C 31.302517 14.141329 32.054428 14.473402 32.426945 15.123299C 32.799458 15.773195 32.705986 16.589838 32.196247 17.13875L 30.885 18.5525C 30.431215 19.044222 30.431215 19.802027 30.884998 20.293749L 32.202499 21.713751C 32.713017 22.262299 32.806908 23.079327 32.434135 23.72938C 32.061367 24.379435 31.308786 24.711058 30.577499 24.547501L 28.702499 24.11125M 21.625 27.75C 23.741421 29.608793 26.49777 30.571655 29.311251 30.435001M 11.345 29.327499C 13.000301 30.762785 15.145448 31.50425 17.33375 31.397499M 33.38625 29.327499C 35.04155 30.762785 37.186699 31.50425 39.375004 31.397499"></path></g></g></g><g id="g-root-tx_managesr_1q7m5rx7t37k6-stroke" data-item-order="1000000000" data-item-id="tx_managesr_1q7m5rx7t37k6" data-item-class="Label Stroke" data-item-index="none" data-renderer-id="0" transform="translate(260, 192)"></g><g id="g-root-cu_dg3irh7t4nwv-stroke" data-item-order="1000000000" data-item-id="cu_dg3irh7t4nwv" data-item-class="Curve Stroke ColorFillGray ColorStrokeGray" data-item-index="none" data-renderer-id="0" transform="translate(236, 231)"><g id="cu_dg3irh7t4nwv-stroke" fill="none" stroke-linecap="round" stroke-linejoin="round" stroke-miterlimit="4" stroke="#888888" stroke-width="2" stroke-dasharray="5.0, 7.0"><g><path d="M 10 10L 10 22L 10 34L 19 34L 28 34"></path></g></g></g><g id="g-root-cu_hvx0vx7t4nwi-stroke" data-item-order="1000000000" data-item-id="cu_hvx0vx7t4nwi" data-item-class="Curve Stroke ColorFillGray ColorStrokeGray" data-item-index="none" data-renderer-id="0" transform="translate(236, 231)"><g id="cu_hvx0vx7t4nwi-stroke" fill="none" stroke-linecap="round" stroke-linejoin="round" stroke-miterlimit="4" stroke="#888888" stroke-width="2" stroke-dasharray="5.0, 7.0"><g><path d="M 10 10L 10 17.5L 10 58C 10.000002 64.627417 15.372585 70 22.000002 69.999999L 22.1 70L 28 70"></path></g></g></g><g id="g-root-tx_resource_zlbm4d7t37kd-stroke" data-item-order="1000000000" data-item-id="tx_resource_zlbm4d7t37kd" data-item-class="Label Stroke" data-item-index="none" data-renderer-id="0" transform="translate(260, 243)"></g><g id="g-root-tx_resource_v5i3zx7t38cm-stroke" data-item-order="1000000000" data-item-id="tx_resource_v5i3zx7t38cm" data-item-class="Label Stroke" data-item-index="none" data-renderer-id="0" transform="translate(260, 279)"></g><g id="g-root-tx_intercep_18i7kjh7t4n41-stroke" data-item-order="1000000000" data-item-id="tx_intercep_18i7kjh7t4n41" data-item-class="Label Stroke" data-item-index="none" data-renderer-id="0" transform="translate(26, 18)"></g></g></g></svg>